<svg class="icon icon-tabler icons-tabler-outline icon-tabler-sparkles" fill="none" height="24" stroke="currentColor" stroke-linecap="round"
    stroke-linejoin="round" stroke-width="1.25" viewBox="0 0 24 24" width="24"
    xmlns="http://www.w3.org/2000/svg">
    <path d="M0 0h24v24H0z" fill="none" stroke="none" />
    <path
        d="M16 18a2 2 0 0 1 2 2a2 2 0 0 1 2 -2a2 2 0 0 1 -2 -2a2 2 0 0 1 -2 2zm0 -12a2 2 0 0 1 2 2a2 2 0 0 1 2 -2a2 2 0 0 1 -2 -2a2 2 0 0 1 -2 2zm-7 12a6 6 0 0 1 6 -6a6 6 0 0 1 -6 -6a6 6 0 0 1 -6 6a6 6 0 0 1 6 6z" />
</svg>